<mxfile host="app.diagrams.net" modified="2023-07-14T01:43:25.537Z" agent="Mozilla/5.0 (Windows NT 10.0; Win64; x64) AppleWebKit/537.36 (KHTML, like Gecko) Chrome/114.0.0.0 Safari/537.36 Edg/114.0.1823.79" etag="ZpXXgCFxk-qwjE2H0KLW" version="21.6.2" type="github">
  <diagram name="Page-1" id="74e2e168-ea6b-b213-b513-2b3c1d86103e">
    <mxGraphModel dx="1366" dy="758" grid="1" gridSize="10" guides="1" tooltips="1" connect="1" arrows="1" fold="1" page="1" pageScale="1" pageWidth="1100" pageHeight="850" background="none" math="0" shadow="0">
      <root>
        <mxCell id="0" />
        <mxCell id="1" parent="0" />
        <mxCell id="77e6c97f196da883-1" value="Activity Diagram Registrasi" style="swimlane;html=1;childLayout=stackLayout;startSize=20;rounded=0;shadow=0;labelBackgroundColor=none;strokeWidth=1;fontFamily=Verdana;fontSize=8;align=center;" parent="1" vertex="1">
          <mxGeometry x="80" y="56" width="790" height="794" as="geometry" />
        </mxCell>
        <mxCell id="77e6c97f196da883-2" value="User" style="swimlane;html=1;startSize=20;" parent="77e6c97f196da883-1" vertex="1">
          <mxGeometry y="20" width="190" height="774" as="geometry" />
        </mxCell>
        <mxCell id="kBbiOHrRjtl-JXDuf86f-4" value="" style="edgeStyle=orthogonalEdgeStyle;rounded=0;orthogonalLoop=1;jettySize=auto;html=1;" edge="1" parent="77e6c97f196da883-2" source="kBbiOHrRjtl-JXDuf86f-2" target="kBbiOHrRjtl-JXDuf86f-3">
          <mxGeometry relative="1" as="geometry" />
        </mxCell>
        <mxCell id="kBbiOHrRjtl-JXDuf86f-2" value="" style="strokeWidth=2;html=1;shape=mxgraph.flowchart.start_2;whiteSpace=wrap;fillStyle=solid;" vertex="1" parent="77e6c97f196da883-2">
          <mxGeometry x="72" y="44" width="46" height="46" as="geometry" />
        </mxCell>
        <mxCell id="kBbiOHrRjtl-JXDuf86f-3" value="Memilih Menu Registerasi" style="rounded=1;whiteSpace=wrap;html=1;strokeWidth=2;fillStyle=solid;arcSize=50;" vertex="1" parent="77e6c97f196da883-2">
          <mxGeometry x="20" y="124" width="150" height="37" as="geometry" />
        </mxCell>
        <mxCell id="kBbiOHrRjtl-JXDuf86f-20" value="Input Informasi" style="rounded=1;whiteSpace=wrap;html=1;strokeWidth=2;fillStyle=solid;arcSize=50;" vertex="1" parent="77e6c97f196da883-2">
          <mxGeometry x="20" y="194" width="150" height="37" as="geometry" />
        </mxCell>
        <mxCell id="kBbiOHrRjtl-JXDuf86f-42" value="Start" style="text;html=1;align=center;verticalAlign=middle;resizable=0;points=[];autosize=1;strokeColor=none;fillColor=none;" vertex="1" parent="77e6c97f196da883-2">
          <mxGeometry x="120" y="52" width="50" height="30" as="geometry" />
        </mxCell>
        <mxCell id="77e6c97f196da883-3" value="Controller" style="swimlane;html=1;startSize=20;" parent="77e6c97f196da883-1" vertex="1">
          <mxGeometry x="190" y="20" width="210" height="774" as="geometry" />
        </mxCell>
        <mxCell id="kBbiOHrRjtl-JXDuf86f-7" style="edgeStyle=orthogonalEdgeStyle;rounded=0;orthogonalLoop=1;jettySize=auto;html=1;exitX=0.5;exitY=1;exitDx=0;exitDy=0;" edge="1" parent="77e6c97f196da883-3">
          <mxGeometry relative="1" as="geometry">
            <mxPoint x="80" y="352.5" as="sourcePoint" />
            <mxPoint x="80" y="352.5" as="targetPoint" />
          </mxGeometry>
        </mxCell>
        <mxCell id="kBbiOHrRjtl-JXDuf86f-23" style="edgeStyle=orthogonalEdgeStyle;rounded=0;orthogonalLoop=1;jettySize=auto;html=1;entryX=0.5;entryY=0;entryDx=0;entryDy=0;" edge="1" parent="77e6c97f196da883-3" source="kBbiOHrRjtl-JXDuf86f-8" target="kBbiOHrRjtl-JXDuf86f-11">
          <mxGeometry relative="1" as="geometry" />
        </mxCell>
        <mxCell id="kBbiOHrRjtl-JXDuf86f-8" value="Mengirim Request Registrasi" style="rounded=1;whiteSpace=wrap;html=1;strokeWidth=2;fillStyle=solid;arcSize=50;" vertex="1" parent="77e6c97f196da883-3">
          <mxGeometry x="20" y="264" width="170" height="37" as="geometry" />
        </mxCell>
        <mxCell id="kBbiOHrRjtl-JXDuf86f-28" style="edgeStyle=orthogonalEdgeStyle;rounded=0;orthogonalLoop=1;jettySize=auto;html=1;entryX=0.5;entryY=0;entryDx=0;entryDy=0;entryPerimeter=0;" edge="1" parent="77e6c97f196da883-3" source="kBbiOHrRjtl-JXDuf86f-11" target="kBbiOHrRjtl-JXDuf86f-27">
          <mxGeometry relative="1" as="geometry" />
        </mxCell>
        <mxCell id="kBbiOHrRjtl-JXDuf86f-11" value="Validasi name, email, password, confirm password" style="rounded=1;whiteSpace=wrap;html=1;strokeWidth=2;fillStyle=solid;arcSize=50;" vertex="1" parent="77e6c97f196da883-3">
          <mxGeometry x="25" y="344" width="160" height="55" as="geometry" />
        </mxCell>
        <mxCell id="kBbiOHrRjtl-JXDuf86f-27" value="" style="strokeWidth=2;html=1;shape=mxgraph.flowchart.decision;whiteSpace=wrap;" vertex="1" parent="77e6c97f196da883-3">
          <mxGeometry x="87" y="434" width="36" height="36" as="geometry" />
        </mxCell>
        <mxCell id="kBbiOHrRjtl-JXDuf86f-38" style="edgeStyle=orthogonalEdgeStyle;rounded=0;orthogonalLoop=1;jettySize=auto;html=1;entryX=0.5;entryY=0;entryDx=0;entryDy=0;" edge="1" parent="77e6c97f196da883-3" source="kBbiOHrRjtl-JXDuf86f-33" target="kBbiOHrRjtl-JXDuf86f-37">
          <mxGeometry relative="1" as="geometry" />
        </mxCell>
        <mxCell id="kBbiOHrRjtl-JXDuf86f-33" value="Login User" style="rounded=1;whiteSpace=wrap;html=1;strokeWidth=2;fillStyle=solid;arcSize=50;" vertex="1" parent="77e6c97f196da883-3">
          <mxGeometry x="15" y="534" width="170" height="37" as="geometry" />
        </mxCell>
        <mxCell id="kBbiOHrRjtl-JXDuf86f-37" value="Request View Home" style="rounded=1;whiteSpace=wrap;html=1;strokeWidth=2;fillStyle=solid;arcSize=50;" vertex="1" parent="77e6c97f196da883-3">
          <mxGeometry x="15" y="604" width="170" height="37" as="geometry" />
        </mxCell>
        <mxCell id="kBbiOHrRjtl-JXDuf86f-44" value="Request View Login" style="rounded=1;whiteSpace=wrap;html=1;strokeWidth=2;fillStyle=solid;arcSize=50;" vertex="1" parent="77e6c97f196da883-3">
          <mxGeometry x="40" y="124" width="120" height="37" as="geometry" />
        </mxCell>
        <mxCell id="77e6c97f196da883-4" value="Model" style="swimlane;html=1;startSize=20;" parent="77e6c97f196da883-1" vertex="1">
          <mxGeometry x="400" y="20" width="200" height="774" as="geometry" />
        </mxCell>
        <mxCell id="kBbiOHrRjtl-JXDuf86f-12" value="Insert Data" style="rounded=1;whiteSpace=wrap;html=1;strokeWidth=2;fillStyle=solid;arcSize=50;" vertex="1" parent="77e6c97f196da883-4">
          <mxGeometry x="40" y="484" width="120" height="37" as="geometry" />
        </mxCell>
        <mxCell id="77e6c97f196da883-5" value="View" style="swimlane;html=1;startSize=20;" parent="77e6c97f196da883-1" vertex="1">
          <mxGeometry x="600" y="20" width="190" height="774" as="geometry" />
        </mxCell>
        <mxCell id="kBbiOHrRjtl-JXDuf86f-17" value="Halaman Registrasi" style="rounded=1;whiteSpace=wrap;html=1;strokeWidth=2;fillStyle=solid;arcSize=50;" vertex="1" parent="77e6c97f196da883-5">
          <mxGeometry x="35" y="124" width="120" height="37" as="geometry" />
        </mxCell>
        <mxCell id="kBbiOHrRjtl-JXDuf86f-41" style="edgeStyle=orthogonalEdgeStyle;rounded=0;orthogonalLoop=1;jettySize=auto;html=1;entryX=0.5;entryY=0;entryDx=0;entryDy=0;" edge="1" parent="77e6c97f196da883-5" source="kBbiOHrRjtl-JXDuf86f-35" target="kBbiOHrRjtl-JXDuf86f-40">
          <mxGeometry relative="1" as="geometry" />
        </mxCell>
        <mxCell id="kBbiOHrRjtl-JXDuf86f-35" value="Menampilkan Home" style="rounded=1;whiteSpace=wrap;html=1;strokeWidth=2;fillStyle=solid;arcSize=50;" vertex="1" parent="77e6c97f196da883-5">
          <mxGeometry x="10" y="644" width="170" height="37" as="geometry" />
        </mxCell>
        <mxCell id="kBbiOHrRjtl-JXDuf86f-40" value="" style="ellipse;shape=doubleEllipse;whiteSpace=wrap;html=1;aspect=fixed;" vertex="1" parent="77e6c97f196da883-5">
          <mxGeometry x="70" y="714" width="50" height="50" as="geometry" />
        </mxCell>
        <mxCell id="kBbiOHrRjtl-JXDuf86f-43" value="End" style="text;html=1;align=center;verticalAlign=middle;resizable=0;points=[];autosize=1;strokeColor=none;fillColor=none;" vertex="1" parent="77e6c97f196da883-5">
          <mxGeometry x="130" y="724" width="40" height="30" as="geometry" />
        </mxCell>
        <mxCell id="kBbiOHrRjtl-JXDuf86f-19" style="edgeStyle=orthogonalEdgeStyle;rounded=0;orthogonalLoop=1;jettySize=auto;html=1;" edge="1" parent="77e6c97f196da883-1" source="kBbiOHrRjtl-JXDuf86f-3" target="kBbiOHrRjtl-JXDuf86f-44">
          <mxGeometry relative="1" as="geometry">
            <mxPoint x="230" y="164" as="targetPoint" />
          </mxGeometry>
        </mxCell>
        <mxCell id="kBbiOHrRjtl-JXDuf86f-21" style="edgeStyle=orthogonalEdgeStyle;rounded=0;orthogonalLoop=1;jettySize=auto;html=1;entryX=1;entryY=0.5;entryDx=0;entryDy=0;exitX=0.5;exitY=1;exitDx=0;exitDy=0;" edge="1" parent="77e6c97f196da883-1" source="kBbiOHrRjtl-JXDuf86f-17" target="kBbiOHrRjtl-JXDuf86f-20">
          <mxGeometry relative="1" as="geometry" />
        </mxCell>
        <mxCell id="kBbiOHrRjtl-JXDuf86f-22" style="edgeStyle=orthogonalEdgeStyle;rounded=0;orthogonalLoop=1;jettySize=auto;html=1;exitX=0.5;exitY=1;exitDx=0;exitDy=0;entryX=0;entryY=0.5;entryDx=0;entryDy=0;" edge="1" parent="77e6c97f196da883-1" source="kBbiOHrRjtl-JXDuf86f-20" target="kBbiOHrRjtl-JXDuf86f-8">
          <mxGeometry relative="1" as="geometry">
            <mxPoint x="95" y="304" as="targetPoint" />
          </mxGeometry>
        </mxCell>
        <mxCell id="kBbiOHrRjtl-JXDuf86f-29" style="edgeStyle=orthogonalEdgeStyle;rounded=0;orthogonalLoop=1;jettySize=auto;html=1;entryX=0.5;entryY=1;entryDx=0;entryDy=0;" edge="1" parent="77e6c97f196da883-1" source="kBbiOHrRjtl-JXDuf86f-27" target="kBbiOHrRjtl-JXDuf86f-17">
          <mxGeometry relative="1" as="geometry" />
        </mxCell>
        <mxCell id="kBbiOHrRjtl-JXDuf86f-30" value="Tidak" style="edgeLabel;html=1;align=center;verticalAlign=middle;resizable=0;points=[];" vertex="1" connectable="0" parent="kBbiOHrRjtl-JXDuf86f-29">
          <mxGeometry x="-0.3697" relative="1" as="geometry">
            <mxPoint as="offset" />
          </mxGeometry>
        </mxCell>
        <mxCell id="kBbiOHrRjtl-JXDuf86f-31" style="edgeStyle=orthogonalEdgeStyle;rounded=0;orthogonalLoop=1;jettySize=auto;html=1;entryX=0;entryY=0.5;entryDx=0;entryDy=0;exitX=0.5;exitY=1;exitDx=0;exitDy=0;exitPerimeter=0;" edge="1" parent="77e6c97f196da883-1" source="kBbiOHrRjtl-JXDuf86f-27" target="kBbiOHrRjtl-JXDuf86f-12">
          <mxGeometry relative="1" as="geometry">
            <Array as="points">
              <mxPoint x="295" y="523" />
              <mxPoint x="437" y="523" />
            </Array>
          </mxGeometry>
        </mxCell>
        <mxCell id="kBbiOHrRjtl-JXDuf86f-32" value="Ya" style="edgeLabel;html=1;align=center;verticalAlign=middle;resizable=0;points=[];" vertex="1" connectable="0" parent="kBbiOHrRjtl-JXDuf86f-31">
          <mxGeometry x="-0.2064" y="-1" relative="1" as="geometry">
            <mxPoint as="offset" />
          </mxGeometry>
        </mxCell>
        <mxCell id="kBbiOHrRjtl-JXDuf86f-34" style="edgeStyle=orthogonalEdgeStyle;rounded=0;orthogonalLoop=1;jettySize=auto;html=1;entryX=1;entryY=0.5;entryDx=0;entryDy=0;exitX=0.5;exitY=1;exitDx=0;exitDy=0;" edge="1" parent="77e6c97f196da883-1" source="kBbiOHrRjtl-JXDuf86f-12" target="kBbiOHrRjtl-JXDuf86f-33">
          <mxGeometry relative="1" as="geometry" />
        </mxCell>
        <mxCell id="kBbiOHrRjtl-JXDuf86f-36" style="edgeStyle=orthogonalEdgeStyle;rounded=0;orthogonalLoop=1;jettySize=auto;html=1;entryX=0;entryY=0.5;entryDx=0;entryDy=0;exitX=0.5;exitY=1;exitDx=0;exitDy=0;" edge="1" parent="77e6c97f196da883-1" source="kBbiOHrRjtl-JXDuf86f-37" target="kBbiOHrRjtl-JXDuf86f-35">
          <mxGeometry relative="1" as="geometry" />
        </mxCell>
        <mxCell id="kBbiOHrRjtl-JXDuf86f-45" style="edgeStyle=orthogonalEdgeStyle;rounded=0;orthogonalLoop=1;jettySize=auto;html=1;" edge="1" parent="77e6c97f196da883-1" source="kBbiOHrRjtl-JXDuf86f-44" target="kBbiOHrRjtl-JXDuf86f-17">
          <mxGeometry relative="1" as="geometry" />
        </mxCell>
      </root>
    </mxGraphModel>
  </diagram>
</mxfile>
